<?xml version="1.0" encoding="UTF-8"?>
<svg version="1.1" xmlns="http://www.w3.org/2000/svg" width="498" height="498">
<path d="M0 0 C164.34 0 328.68 0 498 0 C498 164.34 498 328.68 498 498 C333.66 498 169.32 498 0 498 C0 333.66 0 169.32 0 0 Z " fill="#191109" transform="translate(0,0)"/>
<path d="M0 0 C164.34 0 328.68 0 498 0 C498 164.34 498 328.68 498 498 C333.66 498 169.32 498 0 498 C0 333.66 0 169.32 0 0 Z M208 46 C206.88189941 46.28439941 205.76379883 46.56879883 204.61181641 46.86181641 C150.39716637 60.91043142 105.79013641 90.08175732 76 138 C75.21882813 139.17175781 75.21882813 139.17175781 74.421875 140.3671875 C68.68231061 149.22882262 64.89706536 159.23012247 61 169 C60.70029297 169.74781738 60.40058594 170.49563477 60.09179688 171.26611328 C52.16877282 191.52788933 49.5336437 212.7026689 49.5625 234.3125 C49.56227844 235.08542389 49.56205688 235.85834778 49.56182861 236.6546936 C49.59329278 246.92829172 50.36162633 256.84359677 52 267 C52.13510986 267.85118408 52.27021973 268.70236816 52.40942383 269.5793457 C56.25973966 292.2281167 64.30588502 316.38131478 78.3125 334.8125 C81.21168685 339.2089195 81.18912858 341.79727423 80.1875 346.9375 C79.66768383 348.88229484 79.14599013 350.82678805 78.59228516 352.76220703 C77.44926384 357.08081105 76.70267457 361.48719099 75.875 365.875 C75.54399878 367.60251563 75.20843791 369.32916722 74.8671875 371.0546875 C74.72394043 371.79187012 74.58069336 372.52905273 74.43310547 373.28857422 C74 375 74 375 73 376 C72.71307951 377.40965282 72.47344298 378.82890265 72.25 380.25 C71.56918517 384.24062234 70.73614296 388.15960978 69.7578125 392.0859375 C69.5319043 392.99569336 69.30599609 393.90544922 69.07324219 394.84277344 C68.61634992 396.66331338 68.15117407 398.48179941 67.67675781 400.29785156 C65.48011956 409.09425495 64.60517494 417.73772889 69 426 C71.39228011 429.03884231 74.0327699 431.52916742 77 434 C78.485 435.2375 78.485 435.2375 80 436.5 C86.98826853 439.89296779 95.44783104 439.41487447 102.69580078 437.16210938 C108.87022804 434.87284623 114.85343446 432.16014943 120.84033203 429.42431641 C125.99048879 427.10272666 131.21504689 424.96515242 136.4375 422.8125 C138.42214627 421.98632843 140.40652776 421.15952048 142.390625 420.33203125 C147.48572885 418.21197351 152.58470707 416.10148064 157.6875 414 C158.70251587 413.5819812 158.70251587 413.5819812 159.73803711 413.15551758 C161.49113627 412.43484662 163.24551158 411.71728214 165 411 C165.85207031 410.5875 166.70414062 410.175 167.58203125 409.75 C172.49973942 408.22463656 177.56253261 410.3945717 182.3046875 411.92578125 C198.09495455 416.91284419 213.52122549 420.88710173 230 423 C231.24765137 423.17217041 232.49530273 423.34434082 233.78076172 423.52172852 C238.01684052 424.04615771 242.21901792 424.22835915 246.484375 424.30859375 C247.28534103 424.32394669 248.08630707 424.33929962 248.9115448 424.3551178 C308.93521662 425.28602188 366.09588847 408.42780368 410 366 C410.79921875 365.24074219 411.5984375 364.48148437 412.421875 363.69921875 C429.54941624 347.07369165 441.87429734 326.93744636 451.11279297 305.08349609 C451.86673908 303.3129468 452.65090268 301.55531357 453.44140625 299.80078125 C458.021851 289.04606928 459.86749613 277.43686065 462 266 C462.19053955 265.08105957 462.3810791 264.16211914 462.57739258 263.21533203 C464.32657102 254.15516479 464.35576077 245.19175591 464.3125 236 C464.31034485 235.17885712 464.3081897 234.35771423 464.30596924 233.51168823 C464.25379478 221.12869893 463.84630448 209.10313609 461 197 C460.79600586 196.12424316 460.59201172 195.24848633 460.38183594 194.34619141 C452.72904396 162.45955817 438.28949367 134.91323727 417 110 C415.94039063 108.75476563 415.94039063 108.75476563 414.859375 107.484375 C393.79326793 83.38717339 365.51887532 65.46252779 335.31640625 55.140625 C333.00066049 54.3441612 330.7056449 53.48593993 328.4296875 52.58203125 C322.61119137 50.38975592 316.58503824 48.95209182 310.5625 47.4375 C309.40556641 47.13392578 308.24863281 46.83035156 307.05664062 46.51757812 C290.06801904 42.23072969 273.3771362 41.58749727 255.9375 41.625 C254.37604752 41.62681274 254.37604752 41.62681274 252.78305054 41.62866211 C237.48465799 41.676865 222.87895017 42.12641713 208 46 Z " fill="#090909" transform="translate(0,0)"/>
<path d="M0 0 C3.00534688 0.01606356 6.00934219 0.00005855 9.01464844 -0.01904297 C26.30052212 -0.03890428 43.14527735 1.78807389 59.88964844 6.20361328 C61.39229248 6.59154053 61.39229248 6.59154053 62.92529297 6.98730469 C95.01804782 15.46899802 125.39469359 30.4856587 149.63964844 53.39111328 C150.96906792 54.52073562 152.30228561 55.6459064 153.63964844 56.76611328 C167.61844137 69.00457456 178.28383367 84.4854433 187.63964844 100.39111328 C187.99800781 100.99648926 188.35636719 101.60186523 188.72558594 102.22558594 C197.22330882 116.77314442 202.87875591 132.47183339 207.01464844 148.76611328 C207.37260498 150.17171509 207.37260498 150.17171509 207.73779297 151.60571289 C211.05091453 165.38643003 212.0778825 179.02909715 212.07714844 193.14111328 C212.0797467 194.34118011 212.0797467 194.34118011 212.08239746 195.56549072 C212.06818866 210.62943891 210.20024138 224.7234778 206.63964844 239.39111328 C206.45853516 240.18146973 206.27742188 240.97182617 206.09082031 241.78613281 C195.89438416 286.24059514 163.84101427 325.84190469 125.74658203 349.85620117 C89.11046572 372.36881787 47.95409509 382.88018757 5.13964844 382.82861328 C4.28213989 382.82883484 3.42463135 382.8290564 2.5411377 382.82928467 C-8.57438113 382.79858176 -19.3675828 382.07138329 -30.36035156 380.39111328 C-31.25141602 380.25600342 -32.14248047 380.12089355 -33.06054688 379.98168945 C-35.29555069 379.61646973 -37.51428816 379.20788414 -39.73535156 378.76611328 C-40.5398877 378.60715576 -41.34442383 378.44819824 -42.17333984 378.28442383 C-50.81511238 376.46608815 -59.20282909 373.82081901 -67.60400391 371.12109375 C-68.65539551 370.78352051 -69.70678711 370.44594727 -70.79003906 370.09814453 C-71.72058105 369.79368408 -72.65112305 369.48922363 -73.60986328 369.17553711 C-79.19269064 367.58334607 -82.50237887 366.9947961 -87.87597656 369.47314453 C-88.92205078 369.94059082 -89.968125 370.40803711 -91.04589844 370.88964844 C-92.13966797 371.38513184 -93.2334375 371.88061523 -94.36035156 372.39111328 C-96.5807559 373.32022563 -98.80481337 374.24065023 -101.03222656 375.15283203 C-102.18013672 375.62736816 -103.32804687 376.1019043 -104.51074219 376.59082031 C-106.29254883 377.32727783 -106.29254883 377.32727783 -108.11035156 378.07861328 C-118.70096297 382.4571722 -129.28472543 386.85179077 -139.859375 391.26879883 C-140.77750977 391.65205322 -141.69564453 392.03530762 -142.64160156 392.43017578 C-143.43630859 392.76227051 -144.23101562 393.09436523 -145.04980469 393.43652344 C-145.81228516 393.75153809 -146.57476562 394.06655273 -147.36035156 394.39111328 C-148.63023926 394.93421143 -148.63023926 394.93421143 -149.92578125 395.48828125 C-156.10888907 397.78121473 -165.03964986 397.65084949 -171.16113281 395.32861328 C-173.48508379 393.85155981 -175.38392101 392.30654289 -177.36035156 390.39111328 C-178.02808594 389.75302734 -178.69582031 389.11494141 -179.38378906 388.45751953 C-185.0480344 382.52740145 -186.58257073 376.98330055 -186.52758789 368.91723633 C-186.23440209 364.48863268 -185.10370029 360.29796998 -183.98535156 356.01611328 C-183.52089608 354.16250044 -183.05863181 352.30833708 -182.59863281 350.45361328 C-182.38029785 349.57705078 -182.16196289 348.70048828 -181.93701172 347.79736328 C-181.06024738 344.13885808 -180.39832195 340.45813267 -179.81738281 336.74267578 C-179.3473289 334.32410781 -178.67326871 332.00265163 -177.98217773 329.63964844 C-176.5300604 324.38876481 -175.33514721 319.07356109 -174.11035156 313.76611328 C-173.81644531 312.55181641 -173.52253906 311.33751953 -173.21972656 310.08642578 C-172.95160156 308.91595703 -172.68347656 307.74548828 -172.40722656 306.53955078 C-172.03355957 304.94892822 -172.03355957 304.94892822 -171.65234375 303.32617188 C-171.07480434 297.52083846 -174.6599881 293.00045196 -177.48535156 288.14111328 C-202.5494823 244.00755082 -209.89944455 191.68100816 -196.56542969 142.45654297 C-194.79401917 136.31607796 -192.69606586 130.33801309 -190.36035156 124.39111328 C-190.06290039 123.62686035 -189.76544922 122.86260742 -189.45898438 122.07519531 C-180.59883429 99.77156346 -167.2504323 80.12257014 -150.72509766 62.82324219 C-149.4108669 61.44412275 -148.11374495 60.04876115 -146.81738281 58.65283203 C-135.60857451 46.93530323 -122.39985412 37.43191929 -108.36035156 29.39111328 C-107.67328125 28.98763672 -106.98621094 28.58416016 -106.27832031 28.16845703 C-97.66554424 23.11542728 -89.30480288 18.58289438 -79.76660156 15.52392578 C-77.02107496 14.61084927 -74.42660272 13.59648671 -71.76269531 12.48095703 C-65.78239416 10.06412922 -59.66341115 8.4292179 -53.42285156 6.82861328 C-52.33939453 6.53792969 -51.2559375 6.24724609 -50.13964844 5.94775391 C-33.41496578 1.61387962 -17.25531776 -0.10921087 0 0 Z M-130.36035156 92.39111328 C-143.20823809 107.58305865 -153.9294111 125.16558405 -159.36035156 144.39111328 C-159.84448902 145.80615122 -160.33178826 147.22010921 -160.82128906 148.63330078 C-162.38310414 153.28592666 -163.50135703 157.96152918 -164.48535156 162.76611328 C-164.65711914 163.60408447 -164.82888672 164.44205566 -165.00585938 165.30541992 C-166.2108389 171.34143144 -167.1697464 177.22821306 -167.36035156 183.39111328 C-167.38613281 184.07689453 -167.41191406 184.76267578 -167.43847656 185.46923828 C-168.63769003 221.2057997 -158.4597414 257.04802966 -136.36035156 285.39111328 C-135.70035156 286.05111328 -135.04035156 286.71111328 -134.36035156 287.39111328 C-134.56920944 293.44799169 -135.96348429 299.04270236 -137.49121094 304.88964844 C-139.89803942 314.23616571 -141.86268931 323.68712581 -143.89794922 333.11987305 C-146.35492751 344.48384147 -146.35492751 344.48384147 -147.57128906 349.10986328 C-148.51622537 352.47683604 -148.51622537 352.47683604 -148.36035156 356.39111328 C-140.55933208 353.95928709 -133.05676756 350.88275551 -125.51843262 347.7505188 C-123.26590759 346.81535129 -121.01114717 345.8857583 -118.75585938 344.95727539 C-111.81499017 342.0953721 -104.89063637 339.20373913 -98.00488281 336.21142578 C-96.36821655 335.50675171 -96.36821655 335.50675171 -94.69848633 334.7878418 C-92.6920722 333.92097064 -90.69086963 333.04189921 -88.69604492 332.14868164 C-79.18740108 328.0563212 -73.438918 330.99980158 -64.17285156 334.64111328 C-56.66785647 337.51155645 -49.18777943 340.24608455 -41.42285156 342.32861328 C-40.41798706 342.60850098 -40.41798706 342.60850098 -39.39282227 342.89404297 C-24.91499865 346.57999356 -9.8319544 346.804063 5.01464844 346.76611328 C5.93173584 346.76457245 6.84882324 346.76303162 7.79370117 346.76144409 C33.35044401 346.65968074 55.74957124 342.80943717 79.63964844 333.39111328 C80.42936035 333.08802246 81.21907227 332.78493164 82.03271484 332.47265625 C97.12335927 326.6296844 111.51545993 318.12565227 123.63964844 307.39111328 C124.60128906 306.54935547 125.56292969 305.70759766 126.55371094 304.84033203 C154.75332536 279.79993603 173.50139075 245.40552857 175.7600708 207.362854 C176.62061134 189.49091491 176.60759177 171.70597612 171.63964844 154.39111328 C171.45241211 153.69614746 171.26517578 153.00118164 171.07226562 152.28515625 C164.19599843 126.92372515 150.83751742 103.45713512 131.63964844 85.39111328 C130.46402344 84.18455078 130.46402344 84.18455078 129.26464844 82.95361328 C110.37759749 64.51625402 89.19054697 53.51016666 64.63964844 44.39111328 C63.57109619 43.99327637 63.57109619 43.99327637 62.48095703 43.58740234 C56.15957557 41.35296065 49.71236205 40.04129844 43.13964844 38.76611328 C42.06328125 38.54955078 40.98691406 38.33298828 39.87792969 38.10986328 C28.51586003 35.86789582 17.58692666 35.15077295 6.01464844 35.14111328 C5.28654968 35.14043854 4.55845093 35.13976379 3.80828857 35.1390686 C-47.72801631 35.21454402 -94.96504608 54.54091818 -130.36035156 92.39111328 Z " fill="#F2F1F1" transform="translate(252.3603515625,41.60888671875)"/>
<path d="M0 0 C1.90695396 -0.01073296 1.90695396 -0.01073296 3.85243225 -0.02168274 C5.24885534 -0.02452248 6.6452787 -0.02723427 8.04170227 -0.02983093 C9.52225908 -0.03610214 11.00281434 -0.04274951 12.48336792 -0.04974365 C17.3326357 -0.07070777 22.18190352 -0.08113865 27.03120422 -0.09111023 C28.70566639 -0.0951606 30.38012839 -0.0992776 32.05459023 -0.10346031 C39.92320377 -0.12249493 47.79180803 -0.13672975 55.66044015 -0.14507228 C64.72125146 -0.15483946 73.78181814 -0.18115264 82.8425433 -0.22157317 C89.86103918 -0.25180108 96.87946518 -0.26654745 103.89802486 -0.26985329 C108.08298266 -0.27219606 112.2676786 -0.28105524 116.45256615 -0.30631447 C120.3933515 -0.32971773 124.33370483 -0.33377974 128.27454185 -0.32355309 C129.71317997 -0.32306058 131.15184026 -0.32929589 132.59041214 -0.34310913 C144.29279793 -0.44910382 154.21343925 0.93256112 162.92573547 9.28779602 C169.48787428 16.65472544 169.73141117 24.44633904 169.74311829 33.8651886 C169.74808319 34.82696518 169.7530481 35.78874176 169.75816345 36.77966309 C169.77272658 39.95035019 169.77957699 43.12098727 169.78511047 46.29170227 C169.79086632 48.50359091 169.796624 50.71547954 169.80238342 52.92736816 C169.81287648 57.56159191 169.81873038 62.1957984 169.82221985 66.83003235 C169.82770386 72.75469513 169.85173729 78.67912803 169.8801918 84.60371876 C169.89885629 89.17205463 169.9040258 93.74033551 169.90555573 98.30870628 C169.90857368 100.49228358 169.91657309 102.67586011 169.92974091 104.8593998 C169.94688252 107.92009907 169.94490137 110.98024145 169.93843079 114.04096985 C169.94764557 114.93425995 169.95686035 115.82755005 169.96635437 116.74790955 C169.91152527 125.06820054 168.17802823 132.19523173 162.45698547 138.45967102 C161.40124329 139.66043274 161.40124329 139.66043274 160.32417297 140.88545227 C153.25029882 146.71988693 146.32353304 147.71703175 137.37763977 147.51850891 C136.29344757 147.51117737 135.20925537 147.50384583 134.09220886 147.49629211 C131.75141516 147.47891319 129.41067272 147.45288873 127.07005882 147.41906929 C123.35665237 147.3691613 119.64429015 147.3503986 115.93057251 147.34088135 C105.37693856 147.31092112 94.82443731 147.24630892 84.27168274 147.1098175 C77.80295837 147.02836298 71.3358397 147.00089759 64.86663246 147.00709343 C62.41186746 146.99897832 59.95707822 146.97066304 57.50279808 146.92120552 C42.75814465 146.08231672 42.75814465 146.08231672 29.83177662 151.94021511 C27.56599131 154.19587979 25.58853511 156.66118354 23.58198547 159.14717102 C21.76411459 160.71120859 19.91388625 162.23925824 18.01948547 163.70967102 C13.07384358 167.67192694 8.47410748 171.90280451 3.89448547 176.27607727 C1.58198547 178.14717102 1.58198547 178.14717102 -1.41801453 178.14717102 C-1.41801453 167.91717102 -1.41801453 157.68717102 -1.41801453 147.14717102 C-4.38801453 147.14717102 -7.35801453 147.14717102 -10.41801453 147.14717102 C-17.70626711 145.04750823 -23.24061805 140.41326574 -27.41801453 134.14717102 C-27.41801453 133.48717102 -27.41801453 132.82717102 -27.41801453 132.14717102 C-28.07801453 132.14717102 -28.73801453 132.14717102 -29.41801453 132.14717102 C-30.4059224 126.37698043 -30.57215451 120.77989945 -30.57914734 114.93257141 C-30.58411224 113.93002823 -30.58907715 112.92748505 -30.5941925 111.89456177 C-30.60873807 108.59464317 -30.61560219 105.29477259 -30.62113953 101.99482727 C-30.62689571 99.69229126 -30.63265338 97.38975525 -30.63841248 95.08721924 C-30.64889974 90.26646197 -30.65475779 85.44572128 -30.6582489 80.62495422 C-30.66373942 74.45696824 -30.68778916 68.28920234 -30.71622086 62.12128544 C-30.73486671 57.36769981 -30.74005381 52.61416712 -30.74158478 47.86054802 C-30.74460565 45.58682993 -30.75261502 43.31311266 -30.76576996 41.03943062 C-30.78287653 37.85650568 -30.78093915 34.67411776 -30.77445984 31.49116516 C-30.78367462 30.55844788 -30.7928894 29.62573059 -30.80238342 28.66474915 C-30.75427078 21.09727374 -29.33389406 14.4224999 -24.06645203 8.59638977 C-16.69725572 2.11778354 -9.67600352 0.03755415 0 0 Z " fill="#F69D11" transform="translate(188.4180145263672,161.8528289794922)"/>
<path d="M0 0 C7.92 0 15.84 0 24 0 C29.06386947 13.2712003 34.09914817 26.5522073 39.046875 39.8671875 C39.39403564 40.80143051 39.74119629 41.73567352 40.09887695 42.69822693 C41.81905352 47.32955762 43.53678273 51.96178384 45.25195312 56.5949707 C45.90207272 58.34857055 46.55245945 60.1020714 47.203125 61.85546875 C47.51709229 62.70198502 47.83105957 63.54850128 48.15454102 64.42066956 C50.65692867 71.14042241 53.24736502 77.82402056 55.90557861 84.48368835 C58 89.78517815 58 89.78517815 58 92 C50.41 92 42.82 92 35 92 C34.01 89.256875 33.02 86.51375 32 83.6875 C31.68675781 82.82729248 31.37351562 81.96708496 31.05078125 81.08081055 C30.80714844 80.39801025 30.56351563 79.71520996 30.3125 79.01171875 C30.06113281 78.31522217 29.80976563 77.61872559 29.55078125 76.90112305 C29 75 29 75 29 72 C17.78 72 6.56 72 -5 72 C-5.66 74.97 -6.32 77.94 -7 81 C-8.2128831 84.72275434 -9.60909415 88.33728125 -11 92 C-18.26 92 -25.52 92 -33 92 C-31.8808162 84.1657134 -31.8808162 84.1657134 -30.21777344 80.33154297 C-27.78418511 74.52079986 -25.64821486 68.62218861 -23.515625 62.6953125 C-22.65373876 60.31246638 -21.79175645 57.92965502 -20.9296875 55.546875 C-19.59470836 51.85105984 -18.26076565 48.15487805 -16.92871094 44.45800781 C-11.54416682 29.52321495 -5.9924586 14.7024275 0 0 Z " fill="#FDFCFA" transform="translate(224,189)"/>
<path d="M0 0 C2.99434614 0.03176762 5.98816632 0.04104771 8.98266602 0.046875 C10.89608395 0.05602452 12.80949654 0.06639364 14.72290039 0.078125 C15.61339584 0.08237488 16.5038913 0.08662476 17.42137146 0.09100342 C18.2439595 0.10061096 19.06654755 0.11021851 19.9140625 0.12011719 C20.63476425 0.12694519 21.355466 0.13377319 22.0980072 0.14080811 C24.00805664 0.28125 24.00805664 0.28125 27.00805664 1.28125 C30.30271344 1.34997817 33.58451872 1.27872054 36.87915039 1.21875 C39.5329356 1.27175944 41.48650061 1.58822192 44.00805664 2.28125 C49.15711853 2.67861113 49.15711853 2.67861113 54.00805664 1.28125 C56.03930664 1.8046875 56.03930664 1.8046875 58.50805664 2.65625 C62.96215131 4.07639613 67.12689914 4.75192001 71.78149414 5.0703125 C73.94645471 5.27541403 75.91633364 5.69862396 78.00805664 6.28125 C78.33805664 5.62125 78.66805664 4.96125 79.00805664 4.28125 C80.55493164 5.209375 80.55493164 5.209375 82.13305664 6.15625 C85.32278147 7.98823045 88.46693685 9.2448247 92.00805664 10.28125 C92.00805664 10.94125 92.00805664 11.60125 92.00805664 12.28125 C92.66805664 12.28125 93.32805664 12.28125 94.00805664 12.28125 C94.99805664 14.75625 94.99805664 14.75625 96.00805664 17.28125 C96.66805664 17.28125 97.32805664 17.28125 98.00805664 17.28125 C101.00805664 20.74278846 101.00805664 20.74278846 101.00805664 23.28125 C101.66805664 23.28125 102.32805664 23.28125 103.00805664 23.28125 C105.67396601 27.83551184 106.32368846 31.02071963 106.00805664 36.28125 C106.99805664 36.28125 107.98805664 36.28125 109.00805664 36.28125 C109.33805664 34.30125 109.66805664 32.32125 110.00805664 30.28125 C110.33805664 30.28125 110.66805664 30.28125 111.00805664 30.28125 C111.22461914 31.456875 111.22461914 31.456875 111.44555664 32.65625 C111.88604589 35.24546018 111.88604589 35.24546018 113.00805664 37.28125 C112.94294013 39.59751098 112.80501138 41.91186923 112.63305664 44.22265625 C112.58487793 44.90553207 112.53669922 45.5884079 112.48706055 46.29197693 C112.33274893 48.4763259 112.17121665 50.66004522 112.00805664 52.84375 C111.79369548 55.71965721 111.58630107 58.59594469 111.38305664 61.47265625 C111.28766602 62.75342041 111.19227539 64.03418457 111.09399414 65.35375977 C111.06563477 66.31983154 111.03727539 67.28590332 111.00805664 68.28125 C111.33805664 68.61125 111.66805664 68.94125 112.00805664 69.28125 C112.10709791 71.09579277 112.13604862 72.91420216 112.13745117 74.73144531 C112.14060333 75.89645569 112.14375549 77.06146606 112.14700317 78.26177979 C112.14396683 80.16633942 112.14396683 80.16633942 112.14086914 82.109375 C112.14182587 83.40566833 112.14278259 84.70196167 112.14376831 86.03753662 C112.14524567 88.78822006 112.14309092 91.5388711 112.13842773 94.28955078 C112.13275284 97.80788402 112.13599491 101.3261406 112.1420002 104.84447098 C112.14649611 108.20361169 112.14334105 111.56273212 112.14086914 114.921875 C112.14289337 116.1834845 112.1449176 117.44509399 112.14700317 118.74493408 C112.14227493 120.51136261 112.14227493 120.51136261 112.13745117 122.31347656 C112.13665558 123.34748596 112.13585999 124.38149536 112.13504028 125.44683838 C112.01322936 128.16578924 111.57910324 130.62647225 111.00805664 133.28125 C111.0196582 134.07144531 111.03125977 134.86164063 111.04321289 135.67578125 C111.09137929 139.93506699 110.8507252 142.38495708 107.85961914 145.56640625 C106.12800839 146.92478125 104.35889587 148.23709278 102.55102539 149.4921875 C99.9456178 151.21268932 99.9456178 151.21268932 97.80883789 153.5078125 C96.00805664 155.28125 96.00805664 155.28125 94.00805664 155.28125 C93.76055664 155.85875 93.51305664 156.43625 93.25805664 157.03125 C90.79187322 161.47038017 87.84609091 163.79262407 83.00805664 165.28125 C79.34138997 165.28125 75.67472331 165.28125 72.00805664 165.28125 C72.66805664 163.96125 73.32805664 162.64125 74.00805664 161.28125 C73.03868164 161.920625 72.06930664 162.56 71.07055664 163.21875 C67.36989311 165.37117675 64.16054329 165.818316 59.92602539 166.0078125 C57.76969131 166.11946327 57.76969131 166.11946327 56.00805664 168.28125 C53.69555664 168.73046875 53.69555664 168.73046875 51.00805664 168.96875 C50.12118164 169.05511719 49.23430664 169.14148438 48.32055664 169.23046875 C46.00805664 169.28125 46.00805664 169.28125 44.00805664 168.28125 C41.96307239 168.36905403 39.92060716 168.52366538 37.88305664 168.71875 C36.23950195 168.87150391 36.23950195 168.87150391 34.56274414 169.02734375 C33.71969727 169.11113281 32.87665039 169.19492187 32.00805664 169.28125 C32.33805664 168.62125 32.66805664 167.96125 33.00805664 167.28125 C36.07055664 166.65625 36.07055664 166.65625 39.00805664 166.28125 C39.00805664 165.62125 39.00805664 164.96125 39.00805664 164.28125 C36.3824582 164.5892644 33.75765858 164.90245182 31.13305664 165.21875 C30.38668945 165.30576172 29.64032227 165.39277344 28.87133789 165.48242188 C24.81273354 165.91451063 24.81273354 165.91451063 21.00805664 167.28125 C13.82969872 167.51280993 13.82969872 167.51280993 11.2590332 166.78833008 C8.45107586 166.1557783 5.79997514 166.09939218 2.92211914 166.03515625 C1.15481445 165.98584961 1.15481445 165.98584961 -0.64819336 165.93554688 C-3.1194587 165.874544 -5.59081793 165.81722841 -8.06225586 165.76367188 C-9.24303711 165.72951172 -10.42381836 165.69535156 -11.64038086 165.66015625 C-13.25178955 165.62257202 -13.25178955 165.62257202 -14.89575195 165.58422852 C-17.99194336 165.28125 -17.99194336 165.28125 -21.20141602 164.19506836 C-24.02854068 162.96246923 -24.02854068 162.96246923 -26.99194336 164.28125 C-27.65194336 164.28125 -28.31194336 164.28125 -28.99194336 164.28125 C-30.79150222 165.4618733 -30.79150222 165.4618733 -32.61694336 167.03125 C-33.5644043 167.79695313 -33.5644043 167.79695313 -34.53100586 168.578125 C-36.4259954 170.41327809 -36.4259954 170.41327809 -35.99194336 174.28125 C-40.75129635 181.00033658 -45.95077802 184.27095866 -53.99194336 186.28125 C-54.65194336 186.61125 -55.31194336 186.94125 -55.99194336 187.28125 C-56.98194336 186.62125 -57.97194336 185.96125 -58.99194336 185.28125 C-50.7833507 178.1533404 -42.56423275 171.03870633 -34.2980957 163.97753906 C-31.58292233 161.69759728 -31.58292233 161.69759728 -28.99194336 159.28125 C-27.54696532 159.184369 -26.09728528 159.15660382 -24.64906311 159.15667725 C-23.71134064 159.15411423 -22.77361816 159.15155121 -21.80747986 159.14891052 C-20.77015213 159.15101028 -19.7328244 159.15311005 -18.6640625 159.15527344 C-17.03470764 159.15247124 -17.03470764 159.15247124 -15.37243652 159.14961243 C-13.00320232 159.14559665 -10.63396422 159.14353252 -8.26472664 159.14315033 C-3.22497403 159.13974522 1.81464837 159.11838974 6.85435581 159.09791946 C16.24619346 159.05986567 25.6378668 159.02807615 35.02978516 159.03076172 C41.55390704 159.03252699 48.07765123 159.00811912 54.60165596 158.9688797 C57.08580978 158.95843268 59.57001803 158.95688602 62.05418205 158.96453094 C65.54184368 158.97418767 69.02809082 158.95289912 72.515625 158.92480469 C73.53473465 158.93500137 74.5538443 158.94519806 75.60383606 158.95570374 C84.62480969 158.8260484 91.59051477 156.00659638 97.94555664 149.53125 C103.72935925 142.99427407 104.45210757 134.56082527 104.38037109 126.20678711 C104.38402176 125.24296616 104.38767242 124.2791452 104.39143372 123.28611755 C104.39948432 120.126759 104.3859757 116.96792222 104.37133789 113.80859375 C104.37081867 111.59859721 104.37133877 109.38860021 104.37284851 107.17860413 C104.37275904 102.55804505 104.36237914 97.93766135 104.34423828 93.31713867 C104.32153893 87.40706256 104.3210122 81.49724209 104.32775593 75.58713436 C104.33110376 71.02740728 104.32445067 66.46773803 104.31462669 61.90802193 C104.31078947 59.72921616 104.30962032 57.55040395 104.31121254 55.37159538 C104.3115851 52.32304586 104.29890982 49.27481917 104.28271484 46.22631836 C104.28519226 45.33414612 104.28766968 44.44197388 104.29022217 43.52276611 C104.21261243 34.32758374 102.5649119 27.04074537 96.00805664 20.28125 C89.57699887 15.12857694 82.69571808 13.03291467 74.44960022 13.02728271 C73.17258743 13.02164307 71.89557465 13.01600342 70.5798645 13.01019287 C69.18231144 13.01408069 67.78475894 13.01817698 66.38720703 13.02246094 C64.90163502 13.01974809 63.41606435 13.01618551 61.93049622 13.01184082 C57.9098069 13.0027487 53.8892206 13.00624814 49.86852956 13.01259899 C45.65221337 13.0176764 41.43590578 13.01296262 37.21958923 13.00982666 C30.13905256 13.00619169 23.05855767 13.01097339 15.97802734 13.02050781 C7.80451865 13.03138726 -0.36889022 13.02786861 -8.54239649 13.016855 C-15.5719125 13.00776374 -22.60139856 13.00650596 -29.63091856 13.01173234 C-33.82405549 13.01484248 -38.01714559 13.01528783 -42.21027946 13.00865936 C-46.15427229 13.00285989 -50.0981371 13.00693017 -54.04211617 13.01844788 C-55.48522352 13.02108077 -56.92834174 13.02035292 -58.3714447 13.01592255 C-69.8170249 12.98403799 -79.02840951 13.4957806 -87.99194336 21.28125 C-92.17941959 26.45342966 -94.11993748 31.20630739 -94.11219788 37.86236572 C-94.11357254 38.77659302 -94.1149472 39.69082031 -94.11636353 40.63275146 C-94.11276825 41.62825012 -94.10917297 42.62374878 -94.10546875 43.64941406 C-94.10561478 44.70338379 -94.1057608 45.75735352 -94.10591125 46.84326172 C-94.10521446 50.3278204 -94.09743289 53.81232566 -94.08959961 57.296875 C-94.0877346 59.71254446 -94.08631109 62.1282143 -94.08531189 64.54388428 C-94.08149322 70.90280196 -94.07166844 77.26169681 -94.06060791 83.62060547 C-94.05037985 90.10904634 -94.04581127 96.59749089 -94.04077148 103.0859375 C-94.03004562 115.81771807 -94.01316911 128.54948282 -93.99194336 141.28125 C-95.31194336 140.62125 -96.63194336 139.96125 -97.99194336 139.28125 C-98.48694336 140.27125 -98.48694336 140.27125 -98.99194336 141.28125 C-99.65194336 141.61125 -100.31194336 141.94125 -100.99194336 142.28125 C-102.36577799 130.88578238 -103.30094602 119.76584891 -102.99194336 108.28125 C-103.32194336 108.28125 -103.65194336 108.28125 -103.99194336 108.28125 C-103.98972275 107.72796021 -103.98750214 107.17467041 -103.98521423 106.60461426 C-103.96281703 100.76294613 -103.94789579 94.9212905 -103.93701172 89.07958984 C-103.93203186 86.9093374 -103.92524557 84.73908821 -103.91650391 82.56884766 C-103.87174234 71.15728058 -103.89913807 59.81945558 -104.79980469 48.4387207 C-105.3669571 39.11854002 -104.17320337 27.62440099 -97.99194336 20.28125 C-95.42944336 17.53125 -95.42944336 17.53125 -92.99194336 15.28125 C-92.33194336 15.28125 -91.67194336 15.28125 -90.99194336 15.28125 C-90.80631836 14.724375 -90.62069336 14.1675 -90.42944336 13.59375 C-87.70506278 9.21105081 -83.69703594 6.70752315 -78.74194336 5.46875 C-76.82869989 5.33830158 -74.90962878 5.28125 -72.99194336 5.28125 C-72.04963867 4.94996094 -71.10733398 4.61867187 -70.13647461 4.27734375 C-63.4404223 2.28378222 -56.08428155 3.24288 -49.18530273 3.44726562 C-42.40113018 3.55530572 -36.14318947 3.06288507 -29.50756836 1.79296875 C-19.66933925 -0.05192381 -9.98451021 -0.10700974 0 0 Z " fill="#7A3406" transform="translate(252.991943359375,149.71875)"/>
<path d="M0 0 C6.93 0 13.86 0 21 0 C21 30.36 21 60.72 21 92 C14.07 92 7.14 92 0 92 C0 61.64 0 31.28 0 0 Z " fill="#FEFDFD" transform="translate(294,189)"/>
<path d="M0 0 C3.7556851 0.07008413 7.51137789 0.12466246 11.26733398 0.17797852 C22.35857634 0.35988903 33.40717438 0.65352723 44.45678711 1.67602539 C45.70494453 1.78978264 45.70494453 1.78978264 46.97831726 1.90583801 C51.73178699 2.39836784 56.0275991 3.3559504 60.59350586 4.75805664 C63.25139194 5.08022465 65.88296157 5.2528878 68.55444336 5.41430664 C69.22733398 5.52774414 69.90022461 5.64118164 70.59350586 5.75805664 C70.92350586 6.41805664 71.25350586 7.07805664 71.59350586 7.75805664 C70.42951641 7.76302186 70.42951641 7.76302186 69.24201202 7.76808739 C50.34560585 7.84936771 31.44928072 7.94147668 12.55298615 8.04558372 C3.41481697 8.09566933 -5.72334341 8.14211269 -14.86157227 8.17993164 C-22.82802227 8.21291043 -30.79440325 8.2527741 -38.760777 8.3008467 C-42.97747265 8.32605321 -47.19412285 8.34785166 -51.41087341 8.3614006 C-55.38353428 8.37427416 -59.35603884 8.39638517 -63.32861328 8.42543983 C-64.78298752 8.43447436 -66.2373869 8.44019616 -67.69178772 8.44227028 C-79.15854296 8.46154386 -88.42563666 8.95754043 -97.40649414 16.75805664 C-101.59397037 21.9302363 -103.53448826 26.68311404 -103.52674866 33.33917236 C-103.52812332 34.25339966 -103.52949799 35.16762695 -103.53091431 36.10955811 C-103.52731903 37.10505676 -103.52372375 38.10055542 -103.52001953 39.1262207 C-103.52016556 40.18019043 -103.52031158 41.23416016 -103.52046204 42.32006836 C-103.51976524 45.80462704 -103.51198367 49.2891323 -103.50415039 52.77368164 C-103.50228539 55.1893511 -103.50086187 57.60502094 -103.49986267 60.02069092 C-103.496044 66.3796086 -103.48621922 72.73850345 -103.47515869 79.09741211 C-103.46493063 85.58585298 -103.46036206 92.07429753 -103.45532227 98.56274414 C-103.4445964 111.29452472 -103.42771989 124.02628946 -103.40649414 136.75805664 C-106.92205065 134.4143523 -107.12735147 132.98560595 -107.99668312 128.98983192 C-108.6458468 125.45457449 -109.13111039 121.92422099 -109.51269531 118.35058594 C-109.63892037 117.18269673 -109.63892037 117.18269673 -109.76769543 115.9912138 C-110.59703105 107.75208028 -110.71592336 99.55166736 -110.70727539 91.27758789 C-110.71117906 89.68340446 -110.71551703 88.08922204 -110.72026062 86.49504089 C-110.72762821 83.19522685 -110.72749701 79.89552006 -110.72216797 76.59570312 C-110.716317 72.38177158 -110.733484 68.16827158 -110.75651264 63.95441151 C-110.77126282 60.67977875 -110.77212111 57.40525053 -110.76900291 54.13059044 C-110.76951323 52.57614967 -110.77469602 51.02170261 -110.78481483 49.46729469 C-110.7972187 47.30066259 -110.79037032 45.13488122 -110.77880859 42.96826172 C-110.77943802 41.74126053 -110.78006744 40.51425934 -110.78071594 39.25007629 C-110.34130873 35.14978435 -109.15383625 32.4735262 -107.40649414 28.75805664 C-107.12802354 27.26642281 -106.89057629 25.76572933 -106.71899414 24.25805664 C-105.75611725 19.38556755 -103.244743 17.28981513 -99.37915039 14.36352539 C-97.30502551 12.8107748 -97.30502551 12.8107748 -95.77758789 10.55883789 C-95.32512695 9.96458008 -94.87266602 9.37032227 -94.40649414 8.75805664 C-93.74649414 8.75805664 -93.08649414 8.75805664 -92.40649414 8.75805664 C-92.40649414 8.09805664 -92.40649414 7.43805664 -92.40649414 6.75805664 C-91.08649414 6.75805664 -89.76649414 6.75805664 -88.40649414 6.75805664 C-88.40649414 6.09805664 -88.40649414 5.43805664 -88.40649414 4.75805664 C-79.71757785 2.51232616 -71.06576773 2.35818624 -62.15649414 2.19555664 C-60.00276993 2.15131197 -57.84917624 2.10444679 -55.69561768 2.05274963 C-53.75268754 2.00679514 -51.80957007 1.96896955 -49.86645508 1.93164062 C-46.62588028 1.7690631 -43.59760905 1.31950764 -40.40649414 0.75805664 C-26.9735216 -0.66291174 -13.4821094 -0.25797641 0 0 Z " fill="#823505" transform="translate(262.406494140625,154.241943359375)"/>
<path d="M0 0 C2.99434614 0.03176762 5.98816632 0.04104771 8.98266602 0.046875 C10.89608395 0.05602452 12.80949654 0.06639364 14.72290039 0.078125 C15.61339584 0.08237488 16.5038913 0.08662476 17.42137146 0.09100342 C18.2439595 0.10061096 19.06654755 0.11021851 19.9140625 0.12011719 C20.63476425 0.12694519 21.355466 0.13377319 22.0980072 0.14080811 C24.00805664 0.28125 24.00805664 0.28125 27.00805664 1.28125 C30.30271344 1.34997817 33.58451872 1.27872054 36.87915039 1.21875 C39.5329356 1.27175944 41.48650061 1.58822192 44.00805664 2.28125 C49.15711853 2.67861113 49.15711853 2.67861113 54.00805664 1.28125 C56.03930664 1.8046875 56.03930664 1.8046875 58.50805664 2.65625 C62.96215131 4.07639613 67.12689914 4.75192001 71.78149414 5.0703125 C73.94645471 5.27541403 75.91633364 5.69862396 78.00805664 6.28125 C78.33805664 5.62125 78.66805664 4.96125 79.00805664 4.28125 C80.55493164 5.209375 80.55493164 5.209375 82.13305664 6.15625 C85.32278147 7.98823045 88.46693685 9.2448247 92.00805664 10.28125 C92.00805664 10.94125 92.00805664 11.60125 92.00805664 12.28125 C90.19563612 12.30812279 88.38310431 12.32758715 86.57055664 12.34375 C85.5612207 12.35535156 84.55188477 12.36695313 83.51196289 12.37890625 C81.00805664 12.28125 81.00805664 12.28125 80.00805664 11.28125 C77.623888 10.99350551 75.23900823 10.83333419 72.84399414 10.66015625 C70.00805664 10.28125 70.00805664 10.28125 66.93481445 9.32519531 C62.45634807 8.02610682 57.9780958 7.59796531 53.34399414 7.19921875 C52.39535492 7.11584763 51.4467157 7.0324765 50.46932983 6.94657898 C39.0958789 6.02436243 27.70701826 5.81383347 16.30151367 5.64819336 C12.6161797 5.59349953 8.93137021 5.52317376 5.24633789 5.45117188 C-14.41936648 4.88506342 -14.41936648 4.88506342 -33.95532227 6.80004883 C-37.40240511 7.34629423 -40.73737955 7.47764612 -44.22631836 7.5625 C-44.90438538 7.58090942 -45.58245239 7.59931885 -46.28106689 7.61828613 C-48.43461132 7.67655524 -50.58823284 7.72951066 -52.74194336 7.78125 C-65.89358537 8.09451603 -65.89358537 8.09451603 -78.99194336 9.28125 C-78.99194336 9.94125 -78.99194336 10.60125 -78.99194336 11.28125 C-80.31194336 11.28125 -81.63194336 11.28125 -82.99194336 11.28125 C-82.99194336 11.94125 -82.99194336 12.60125 -82.99194336 13.28125 C-85.13364938 15.61765657 -87.19451092 17.71240323 -89.77709961 19.5546875 C-94.76942609 23.22208657 -96.11457182 26.57959272 -97.38647461 32.59765625 C-97.99194336 35.28125 -97.99194336 35.28125 -99.01261902 37.52046204 C-100.19817538 40.86263336 -100.25306976 43.59160249 -100.26660156 47.13745117 C-100.27171249 47.80842834 -100.27682343 48.47940552 -100.28208923 49.17071533 C-100.29597351 51.38864119 -100.29502485 53.60625453 -100.29272461 55.82421875 C-100.29662122 57.39146537 -100.30095784 58.95871094 -100.30570984 60.5259552 C-100.3131762 63.8237345 -100.31288436 67.12140689 -100.30761719 70.41918945 C-100.30303943 73.74810491 -100.30969283 77.07665053 -100.328125 80.40551758 C-100.42338859 97.65266135 -100.44435375 114.60719486 -97.77961731 131.69779968 C-97.63594223 132.66546768 -97.49226715 133.63313568 -97.34423828 134.63012695 C-97.13513069 135.87944756 -97.13513069 135.87944756 -96.92179871 137.15400696 C-96.99194336 139.28125 -96.99194336 139.28125 -98.40742493 141.07194519 C-99.99194336 142.28125 -99.99194336 142.28125 -100.99194336 142.28125 C-102.36577799 130.88578238 -103.30094602 119.76584891 -102.99194336 108.28125 C-103.32194336 108.28125 -103.65194336 108.28125 -103.99194336 108.28125 C-103.98972275 107.72796021 -103.98750214 107.17467041 -103.98521423 106.60461426 C-103.96281703 100.76294613 -103.94789579 94.9212905 -103.93701172 89.07958984 C-103.93203186 86.9093374 -103.92524557 84.73908821 -103.91650391 82.56884766 C-103.87174234 71.15728058 -103.89913807 59.81945558 -104.79980469 48.4387207 C-105.3669571 39.11854002 -104.17320337 27.62440099 -97.99194336 20.28125 C-95.42944336 17.53125 -95.42944336 17.53125 -92.99194336 15.28125 C-92.33194336 15.28125 -91.67194336 15.28125 -90.99194336 15.28125 C-90.80631836 14.724375 -90.62069336 14.1675 -90.42944336 13.59375 C-87.70506278 9.21105081 -83.69703594 6.70752315 -78.74194336 5.46875 C-76.82869989 5.33830158 -74.90962878 5.28125 -72.99194336 5.28125 C-72.04963867 4.94996094 -71.10733398 4.61867187 -70.13647461 4.27734375 C-63.4404223 2.28378222 -56.08428155 3.24288 -49.18530273 3.44726562 C-42.40113018 3.55530572 -36.14318947 3.06288507 -29.50756836 1.79296875 C-19.66933925 -0.05192381 -9.98451021 -0.10700974 0 0 Z " fill="#612C08" transform="translate(252.991943359375,149.71875)"/>
<path d="M0 0 C0 0.66 0 1.32 0 2 C-6.86426009 5.75253645 -12.51815545 6.55758626 -20.26782227 6.43481445 C-21.35843964 6.43390808 -22.44905701 6.43300171 -23.57272339 6.43206787 C-25.92657526 6.42802119 -28.28042546 6.41509583 -30.6341877 6.39415932 C-34.36330779 6.36288795 -38.09154603 6.35917641 -41.82078552 6.36308289 C-51.74884869 6.36917597 -61.67663282 6.33729732 -71.60449117 6.27665156 C-78.76818649 6.23294913 -85.93105728 6.22114389 -93.09486198 6.23943138 C-95.56398434 6.23866831 -98.03314034 6.22463842 -100.50210762 6.19695473 C-103.95603363 6.15861079 -107.40751641 6.16320119 -110.86157227 6.17700195 C-112.38217003 6.14385139 -112.38217003 6.14385139 -113.93348694 6.11003113 C-119.43056327 6.18104057 -122.40188954 6.83728493 -126.57115173 10.55143738 C-127.1899417 11.19369861 -127.80873167 11.83595984 -128.44627285 12.49768353 C-130 14 -130 14 -132 14 C-131.3125 12.125 -131.3125 12.125 -130 10 C-128.33333333 9.33333333 -126.66666667 8.66666667 -125 8 C-123.77472052 6.04978917 -123.77472052 6.04978917 -123 4 C-116.39827619 -2.60172381 -93.01256951 0.83555058 -83.890625 0.83203125 C-81.90525286 0.82880977 -79.91988095 0.82544506 -77.93450928 0.82194519 C-73.80984953 0.81600866 -69.68521059 0.81410012 -65.56054688 0.81469727 C-60.2746967 0.8147998 -54.98897811 0.8010305 -49.70315933 0.78392506 C-45.61972434 0.77282873 -41.53632176 0.77077715 -37.45287323 0.77130699 C-35.50241381 0.77012782 -33.55195353 0.76570958 -31.60150909 0.75797462 C-28.8882142 0.7482018 -26.17521346 0.75103956 -23.46191406 0.75708008 C-22.65986542 0.75146057 -21.85781677 0.74584106 -21.03146362 0.74005127 C-17.12274975 0.76221723 -14.38299929 1.02784641 -11 3 C-6.90048061 2.66534536 -3.70687815 0 0 0 Z " fill="#F9B206" transform="translate(346,303)"/>
<path d="M0 0 C0.66 0 1.32 0 2 0 C2.25523437 1.01707031 2.25523437 1.01707031 2.515625 2.0546875 C3.75971907 6.83253813 5.09432307 11.44103441 7 16 C9.18294025 21.22226474 10.59492008 26.5201883 12 32 C4.74 32 -2.52 32 -10 32 C-7.75 21.875 -7.75 21.875 -6.0546875 17.08984375 C-5.70019531 16.08115234 -5.34570312 15.07246094 -4.98046875 14.03320312 C-4.43326172 12.50083008 -4.43326172 12.50083008 -3.875 10.9375 C-3.50246094 9.88111328 -3.12992188 8.82472656 -2.74609375 7.73632812 C-1.83534623 5.15587683 -0.91990295 2.57719856 0 0 Z " fill="#FAA421" transform="translate(235,213)"/>
<path d="M0 0 C1.31613349 3.94840047 0.75359341 7.06415525 0.28515625 11.15625 C-0.04948348 13.89190553 -0.04948348 13.89190553 0.05859375 16.21875 C0.0625 18.1875 0.0625 18.1875 -1 22 C-3.33881322 24.31755128 -5.77978218 26.22660942 -8.45703125 28.140625 C-11.05349227 29.93421883 -11.05349227 29.93421883 -13.19921875 32.234375 C-15 34 -15 34 -17 34 C-17.2475 34.5775 -17.495 35.155 -17.75 35.75 C-20.21618343 40.18913017 -23.16196573 42.51137407 -28 44 C-31.66666667 44 -35.33333333 44 -39 44 C-38.34 42.68 -37.68 41.36 -37 40 C-37.969375 40.639375 -38.93875 41.27875 -39.9375 41.9375 C-43.63816353 44.08992675 -46.84751335 44.537066 -51.08203125 44.7265625 C-53.23836534 44.83821327 -53.23836534 44.83821327 -55 47 C-57.3125 47.44921875 -57.3125 47.44921875 -60 47.6875 C-60.886875 47.77386719 -61.77375 47.86023438 -62.6875 47.94921875 C-65 48 -65 48 -67 47 C-69.04498425 47.08780403 -71.08744948 47.24241538 -73.125 47.4375 C-74.76855469 47.59025391 -74.76855469 47.59025391 -76.4453125 47.74609375 C-77.28835938 47.82988281 -78.13140625 47.91367187 -79 48 C-78 46 -78 46 -75.34375 44.9375 C-71.00208334 43.72021028 -66.68070603 43.15742747 -62.21875 42.5625 C-58.99027392 41.9983003 -56.09558314 41.05879149 -53 40 C-50.9375 39.62109375 -50.9375 39.62109375 -49 39.4375 C-48.23300781 39.35886719 -47.46601563 39.28023438 -46.67578125 39.19921875 C-44.69688677 39.051885 -42.71380869 38.95850996 -40.73046875 38.89453125 C-31.44376214 38.51569096 -22.78670468 37.3247598 -15.65234375 30.87890625 C-13.65000832 28.65949521 -11.82296088 26.36731726 -10 24 C-9.02143197 22.99941419 -8.0423474 21.999333 -7.0625 21 C-4.67456541 17.52664059 -4.53527754 15.4841623 -4.3125 11.390625 C-3.77186022 7.25473072 -1.8739294 3.68684714 0 0 Z " fill="#6D3006" transform="translate(364,271)"/>
<path d="M0 0 C0.33 0 0.66 0 1 0 C1.33 34.32 1.66 68.64 2 104 C-1 102 -1 102 -2 99 C-2.10209108 95.95732918 -2.14682688 92.93746742 -2.14526367 89.89453125 C-2.15030159 88.49658829 -2.15030159 88.49658829 -2.15544128 87.07040405 C-2.16495388 83.98442255 -2.16689442 80.89849526 -2.16796875 77.8125 C-2.17118063 75.67163063 -2.17454465 73.53076148 -2.17805481 71.38989258 C-2.18404651 66.90087373 -2.18589462 62.41187413 -2.18530273 57.92285156 C-2.185201 52.16234859 -2.19886489 46.40196855 -2.21607494 40.64149475 C-2.2271755 36.22008697 -2.22922256 31.79870911 -2.22869301 27.37728882 C-2.22987562 25.25295589 -2.23431302 23.12862224 -2.24202538 21.00430298 C-2.25178796 18.03793635 -2.24896223 15.07183943 -2.24291992 12.10546875 C-2.24853943 11.22329681 -2.25415894 10.34112488 -2.25994873 9.43222046 C-2.22831794 3.34247691 -2.22831794 3.34247691 0 0 Z " fill="#A34E06" transform="translate(157,187)"/>
<path d="M0 0 C0.66 0 1.32 0 2 0 C1.24039528 6.45664012 1.24039528 6.45664012 -0.02189636 9.30976868 C-1.22549824 12.62022305 -1.26121841 15.33446259 -1.2746582 18.85620117 C-1.27976913 19.52717834 -1.28488007 20.19815552 -1.29014587 20.88946533 C-1.30403015 23.10739119 -1.30308149 25.32500453 -1.30078125 27.54296875 C-1.30467786 29.11021537 -1.30901448 30.67746094 -1.31376648 32.2447052 C-1.32123284 35.5424845 -1.320941 38.84015689 -1.31567383 42.13793945 C-1.31109607 45.46685491 -1.31774947 48.79540053 -1.33618164 52.12426758 C-1.43144523 69.37141135 -1.45241039 86.32594486 1.21232605 103.41654968 C1.35600113 104.38421768 1.49967621 105.35188568 1.64770508 106.34887695 C1.78711014 107.18175735 1.9265152 108.01463776 2.07014465 108.87275696 C2 111 2 111 0.58451843 112.79069519 C-1 114 -1 114 -2 114 C-3.37383463 102.60453238 -4.30900266 91.48459891 -4 80 C-4.33 80 -4.66 80 -5 80 C-5.05134012 72.49677504 -5.08599763 64.99359651 -5.10986328 57.49023438 C-5.11982829 54.9456208 -5.13340516 52.4010184 -5.15087891 49.85644531 C-5.31431976 25.41723043 -5.31431976 25.41723043 -4.1796875 14.6484375 C-4.1100882 13.95859772 -4.04048889 13.26875793 -3.96878052 12.55801392 C-3.38669621 7.89746035 -1.98378636 4.20323649 0 0 Z " fill="#662E08" transform="translate(154,178)"/>
<path d="M0 0 C4.29 0 8.58 0 13 0 C13.66 1.65 14.32 3.3 15 5 C15.66 5 16.32 5 17 5 C20 8.46153846 20 8.46153846 20 11 C20.66 11 21.32 11 22 11 C28.40090637 21.29711025 26.16331576 36.11156282 26.16796875 47.81640625 C26.17118657 49.72403488 26.17455103 51.63166326 26.17805481 53.53929138 C26.18400962 57.51391168 26.18589808 61.48851033 26.18530273 65.46313477 C26.18520038 70.56436246 26.19894369 75.66545324 26.21607494 80.76664829 C26.2271596 84.69474432 26.22922317 88.6228066 26.22869301 92.55091667 C26.22987496 94.43325212 26.23430872 96.3155884 26.24202538 98.1979084 C26.25176993 100.81636574 26.24897126 103.43451675 26.24291992 106.05297852 C26.24853943 106.83266998 26.25415894 107.61236145 26.25994873 108.41567993 C26.2283279 113.7716721 26.2283279 113.7716721 24 116 C23.98786972 114.29777283 23.98786972 114.29777283 23.97549438 112.56115723 C23.89790436 101.85019726 23.81013272 91.1393623 23.71247292 80.42856598 C23.66259389 74.92245488 23.61626313 69.41636218 23.578125 63.91015625 C23.54116616 58.59326097 23.49477751 53.27652289 23.44193649 47.95976257 C23.4234488 45.93449164 23.40832023 43.90918708 23.39665604 41.88386536 C23.37969712 39.04025279 23.35063913 36.19699585 23.31884766 33.35351562 C23.31668747 32.52200989 23.31452728 31.69050415 23.31230164 30.83380127 C23.18401412 21.8116646 21.42044973 14.61887423 15 8 C10.38805788 4.30483339 5.72459541 2.31188645 0 1 C0 0.67 0 0.34 0 0 Z " fill="#933C04" transform="translate(334,162)"/>
<path d="M0 0 C36.3 0 72.6 0 110 0 C110 0.33 110 0.66 110 1 C109.29504395 1.02505615 108.59008789 1.0501123 107.86376953 1.07592773 C104.61738553 1.19318042 101.37120183 1.3153115 98.125 1.4375 C96.46210938 1.49647461 96.46210938 1.49647461 94.765625 1.55664062 C88.99427664 1.77730983 83.29092057 2.14203955 77.55029297 2.76586914 C71.45973728 3.3250155 65.329686 3.40904581 59.21875 3.60546875 C58.1875 3.64285156 57.15625 3.68023437 56.09375 3.71875 C54.69672852 3.76418945 54.69672852 3.76418945 53.27148438 3.81054688 C50.96840015 3.86108134 50.96840015 3.86108134 49 5 C47.45976004 5.06950541 45.91665012 5.08452357 44.375 5.0625 C43.14910156 5.04896484 43.14910156 5.04896484 41.8984375 5.03515625 C41.27195312 5.02355469 40.64546875 5.01195312 40 5 C40 4.34 40 3.68 40 3 C39.11957031 3.08378906 38.23914063 3.16757812 37.33203125 3.25390625 C35.58986328 3.40666016 35.58986328 3.40666016 33.8125 3.5625 C32.66394531 3.66691406 31.51539063 3.77132813 30.33203125 3.87890625 C27.31368801 3.98859985 24.91076064 3.74002389 22 3 C22 2.34 22 1.68 22 1 C14.74 1 7.48 1 0 1 C0 0.67 0 0.34 0 0 Z " fill="#924003" transform="translate(224,309)"/>
<path d="M0 0 C1.43728706 -0.00143509 1.43728706 -0.00143509 2.90361023 -0.00289917 C4.91466335 -0.00357587 6.92571872 -0.00175736 8.93676758 0.00244141 C12.01974335 0.00782652 15.1025754 0.00246403 18.18554688 -0.00390625 C20.14453157 -0.00324596 22.10351618 -0.0019658 24.0625 0 C24.984366 -0.00202423 25.90623199 -0.00404846 26.85603333 -0.00613403 C28.13833076 -0.00140579 28.13833076 -0.00140579 29.4465332 0.00341797 C30.5728289 0.00461136 30.5728289 0.00461136 31.72187805 0.00582886 C33.69921875 0.1328125 33.69921875 0.1328125 36.69921875 1.1328125 C39.96180324 1.16294191 43.21144319 1.06636927 46.47265625 0.97265625 C49.68547869 1.13213049 51.81815282 1.75702259 54.69921875 3.1328125 C54.69921875 3.4628125 54.69921875 3.7928125 54.69921875 4.1328125 C45.02889917 4.19354724 35.37056294 4.1365457 25.703125 3.87890625 C24.76826263 3.85438385 23.83340027 3.82986145 22.87020874 3.80459595 C19.02637834 3.70222028 15.18265411 3.59731512 11.33911133 3.48461914 C-3.51010894 2.96481026 -3.51010894 2.96481026 -18.30078125 4.1328125 C-18.30078125 3.1428125 -18.30078125 2.1528125 -18.30078125 1.1328125 C-12.16040907 0.23321916 -6.20110739 -0.01376753 0 0 Z " fill="#5A2C08" transform="translate(243.30078125,149.8671875)"/>
<path d="M0 0 C-2.64624145 5.95404327 -6.34708674 9.78559834 -12 13 C-14.31347872 13.73260159 -16.645752 14.411438 -19 15 C-19.99 15.495 -19.99 15.495 -21 16 C-21.99 15.34 -22.98 14.68 -24 14 C-7.72649573 0 -7.72649573 0 0 0 Z " fill="#612D07" transform="translate(218,321)"/>
<path d="M0 0 C0.99 0.33 1.98 0.66 3 1 C2.3503125 1.928125 2.3503125 1.928125 1.6875 2.875 C-0.24809079 6.45942738 -1.27478036 9.97715873 -2.3515625 13.890625 C-3 16 -3 16 -4 17 C-4.12486954 19.37201547 -4.18600052 21.71640343 -4.20532227 24.09008789 C-4.21522186 24.83150528 -4.22512146 25.57292267 -4.23532104 26.33680725 C-4.26702466 28.79872393 -4.29172826 31.26065993 -4.31640625 33.72265625 C-4.33696814 35.42517105 -4.3579644 37.12768065 -4.37937927 38.83018494 C-4.43467899 43.31987309 -4.48405328 47.80960792 -4.53222656 52.29937744 C-4.58238406 56.87736178 -4.63810008 61.45527803 -4.69335938 66.03320312 C-4.80103751 75.0220773 -4.90246088 84.0110105 -5 93 C-5.33 93 -5.66 93 -6 93 C-6.09308814 82.90700763 -6.16396064 72.81411907 -6.20724869 62.72078323 C-6.22803526 58.03293841 -6.25618762 53.34538945 -6.30175781 48.65771484 C-6.34553684 44.12541588 -6.36920409 39.59339971 -6.37950897 35.06090546 C-6.38684327 33.34030462 -6.40116387 31.6197175 -6.42292023 29.89923859 C-6.54241543 20.04897202 -6.42049174 11.08536049 -2 2 C-1.34 1.34 -0.68 0.68 0 0 Z " fill="#883806" transform="translate(160,173)"/>
<path d="M0 0 C2.27145346 0.03300659 4.54240126 0.10240005 6.8125 0.1875 C8.70935547 0.23970703 8.70935547 0.23970703 10.64453125 0.29296875 C14 1 14 1 15.96484375 3.2890625 C17.02742543 6.07182358 17.23327723 7.30359567 16.75 10.1875 C16.0374427 15.33200713 15.70326855 20.44200616 15.4375 25.625 C15.39399414 26.44379639 15.35048828 27.26259277 15.30566406 28.10620117 C15.20175558 30.07069495 15.10058751 32.03533337 15 34 C14.34 34 13.68 34 13 34 C13 23.77 13 13.54 13 3 C10.03 3 7.06 3 4 3 C2.68 2.34 1.36 1.68 0 1 C0 0.67 0 0.34 0 0 Z " fill="#ECB108" transform="translate(174,306)"/>
<path d="M0 0 C1.31439205 3.94317614 0.75045742 7.05688964 0.296875 11.14453125 C-0.03041798 13.90699202 -0.03041798 13.90699202 -0.046875 16.32421875 C-0.16187623 19.34300099 -0.43039459 21.4372573 -2.62109375 23.6015625 C-4.5625 25 -4.5625 25 -8 27 C-8.66 26.67 -9.32 26.34 -10 26 C-8.35786726 21.32623757 -8.35786726 21.32623757 -6.453125 19.58984375 C-4.62343085 17.58800095 -4.64396668 16.54902391 -4.5625 13.875 C-4.17082083 8.68950835 -2.33555557 4.5950698 0 0 Z " fill="#602B08" transform="translate(364,271)"/>
<path d="M0 0 C4.29 0 8.58 0 13 0 C13.66 1.65 14.32 3.3 15 5 C15.66 5 16.32 5 17 5 C20 8.46153846 20 8.46153846 20 11 C20.66 11 21.32 11 22 11 C24.03435531 14.72965139 25 16.66905042 25 21 C24.34 21 23.68 21 23 21 C22.58041016 20.02160156 22.58041016 20.02160156 22.15234375 19.0234375 C18.81470444 11.74716916 15.58056364 6.97811115 8.10546875 3.75 C5.4212845 2.75764433 2.73501196 1.84078125 0 1 C0 0.67 0 0.34 0 0 Z " fill="#7F3906" transform="translate(334,162)"/>
<path d="M0 0 C0.33 0 0.66 0 1 0 C1.144375 0.78375 1.28875 1.5675 1.4375 2.375 C1.87798925 4.96421018 1.87798925 4.96421018 3 7 C2.93552804 11.34302858 2.52530382 15.67059594 2.1875 20 C2.10435547 21.21429688 2.02121094 22.42859375 1.93554688 23.6796875 C1.84724609 24.83726562 1.75894531 25.99484375 1.66796875 27.1875 C1.58828857 28.25355469 1.5086084 29.31960937 1.42651367 30.41796875 C1 33 1 33 -1 35 C-1.0247636 30.65836985 -1.04289015 26.3167774 -1.05493164 21.97509766 C-1.05995288 20.49885339 -1.06677116 19.02261408 -1.07543945 17.54638672 C-1.08760189 15.42153702 -1.09325046 13.29675322 -1.09765625 11.171875 C-1.10289307 9.8940918 -1.10812988 8.61630859 -1.11352539 7.29980469 C-1.02194632 4.6379064 -0.80108514 2.51690418 0 0 Z " fill="#692E07" transform="translate(363,180)"/>
<path d="M0 0 C-2.57784846 2.64752004 -4.91648098 4.94432065 -8 7 C-10.48046875 6.9765625 -10.48046875 6.9765625 -13.1875 6.625 C-14.53908203 6.45871094 -14.53908203 6.45871094 -15.91796875 6.2890625 C-16.94857422 6.14597656 -16.94857422 6.14597656 -18 6 C-14.64685356 3.03007029 -12.40433041 1.67758929 -8 1 C-7.319375 0.62875 -6.63875 0.2575 -5.9375 -0.125 C-3.5380335 -1.20863003 -2.42971792 -0.8677564 0 0 Z " fill="#3F1F06" transform="translate(205,335)"/>
<path d="M0 0 C-1.48647522 4.45942567 -4.99451468 6.85972995 -9 9 C-11.9375 9.3125 -11.9375 9.3125 -14 9 C-5.32142857 0 -5.32142857 0 0 0 Z " fill="#512607" transform="translate(215,325)"/>
<path d="M0 0 C0.66 0.33 1.32 0.66 2 1 C0.55922954 4.36179774 -1.24750021 6.59156268 -4 9 C-4.66 9 -5.32 9 -6 9 C-6 9.66 -6 10.32 -6 11 C-7.98 11.66 -9.96 12.32 -12 13 C-12.66 12.34 -13.32 11.68 -14 11 C-12.80375 10.484375 -11.6075 9.96875 -10.375 9.4375 C-5.7794364 7.17242684 -3.01707592 4.06848117 0 0 Z " fill="#7D3B09" transform="translate(353,296)"/>
<path d="M0 0 C0.66 0.33 1.32 0.66 2 1 C-6.92250923 9.08118081 -6.92250923 9.08118081 -11 11 C-11.66 10.67 -12.32 10.34 -13 10 C-11.40112446 8.51511559 -9.79571095 7.03726855 -8.1875 5.5625 C-7.29417969 4.73878906 -6.40085938 3.91507812 -5.48046875 3.06640625 C-3 1 -3 1 0 0 Z " fill="#7A3706" transform="translate(219,315)"/>
<path d="M0 0 C0.50789063 0.26554688 1.01578125 0.53109375 1.5390625 0.8046875 C5.62218902 2.89977489 9.5873062 4.67619186 14 6 C14 6.66 14 7.32 14 8 C9.1496322 8.34645484 6.08439648 7.69198859 2 5 C0.625 2.3125 0.625 2.3125 0 0 Z " fill="#642D08" transform="translate(331,154)"/>
<path d="M0 0 C0 2 0 2 -2 4.25 C-5.38682622 7.51970254 -9.18992211 10.24880232 -13 13 C-11.37159701 9.59780091 -9.51714616 6.83178943 -7 4 C-6.34 4 -5.68 4 -5 4 C-4.67 3.01 -4.34 2.02 -4 1 C-2 0 -2 0 0 0 Z " fill="#5F2808" transform="translate(170,161)"/>
<path d="M0 0 C0.79921875 0.02707031 1.5984375 0.05414063 2.421875 0.08203125 C3.02515625 0.11683594 3.6284375 0.15164063 4.25 0.1875 C3.25 3.1875 3.25 3.1875 1.25 4.1875 C-0.46233688 4.1004796 -2.17175406 3.94652838 -3.875 3.75 C-4.78507813 3.64816406 -5.69515625 3.54632813 -6.6328125 3.44140625 C-7.33148438 3.35761719 -8.03015625 3.27382813 -8.75 3.1875 C-5.74754796 0.56379764 -3.97853212 -0.17552348 0 0 Z " fill="#2E1906" transform="translate(195.75,337.8125)"/>
<path d="M0 0 C0.33 0 0.66 0 1 0 C1.1080023 2.10304477 1.18558987 4.20766909 1.25 6.3125 C1.29640625 7.48425781 1.3428125 8.65601563 1.390625 9.86328125 C1 13 1 13 -1.015625 14.91796875 C-1.67046875 15.27503906 -2.3253125 15.63210938 -3 16 C-2.69177379 13.7077546 -2.37829126 11.41621545 -2.0625 9.125 C-1.88847656 7.84882813 -1.71445312 6.57265625 -1.53515625 5.2578125 C-1 2 -1 2 0 0 Z " fill="#7E3606" transform="translate(359,276)"/>
<path d="M0 0 C0.66 0.33 1.32 0.66 2 1 C-1.12621626 4.39417765 -3.56541027 6.6062718 -8 8 C-8 5 -8 5 -6 3 C-4.34183216 2.31246699 -2.67540664 1.64438717 -1 1 C-0.67 0.67 -0.34 0.34 0 0 Z " fill="#5F2C07" transform="translate(344,307)"/>
<path d="M0 0 C5 2 5 2 10 4 C9.67 4.66 9.34 5.32 9 6 C5.21213403 5.4739075 2.82847776 4.61896089 0 2 C0 1.34 0 0.68 0 0 Z " fill="#763305" transform="translate(168,304)"/>
<path d="M0 0 C3 1 3 1 3 1 Z M3 2 C3 2.33 3 2.66 3 3 C-0.3 3.66 -3.6 4.32 -7 5 C-6.67 4.01 -6.34 3.02 -6 2 C-2.52176885 0.84058962 -0.54104422 1.29179116 3 2 Z " fill="#8B3D05" transform="translate(179,160)"/>
<path d="M0 0 C0.66 0 1.32 0 2 0 C2.33 1.65 2.66 3.3 3 5 C1.35 5.66 -0.3 6.32 -2 7 C-1.34 4.69 -0.68 2.38 0 0 Z " fill="#FCB334" transform="translate(235,213)"/>
<path d="M0 0 C0.99 0.33 1.98 0.66 3 1 C-2.75 6 -2.75 6 -5 6 C-5 5.34 -5 4.68 -5 4 C-2.6875 1.8125 -2.6875 1.8125 0 0 Z " fill="#F0B008" transform="translate(206,322)"/>
<path d="M0 0 C1.65 1.65 3.3 3.3 5 5 C3.68 5.33 2.36 5.66 1 6 C-0.0625 4.125 -0.0625 4.125 -1 2 C-0.67 1.34 -0.34 0.68 0 0 Z " fill="#7E3A03" transform="translate(161,296)"/>
</svg>
